<svg width="26" height="23" viewBox="0 0 26 23" fill="none" xmlns="http://www.w3.org/2000/svg">
<path d="M23.75 9.50198H4.97167L10.7192 2.59865C10.9879 2.27531 11.1172 1.85845 11.0786 1.43977C11.04 1.0211 10.8367 0.634902 10.5133 0.366149C10.19 0.0973966 9.77313 -0.0319014 9.35445 0.00669988C8.93578 0.0453011 8.54959 0.24864 8.28083 0.571983L0.364167 10.072C0.310904 10.1475 0.263276 10.2269 0.221666 10.3095C0.221666 10.3886 0.221667 10.4361 0.110834 10.5153C0.0390666 10.6969 0.00149011 10.8901 0 11.0853C0.00149011 11.2805 0.0390666 11.4738 0.110834 11.6553C0.110834 11.7345 0.110833 11.782 0.221666 11.8611C0.263276 11.9437 0.310904 12.0231 0.364167 12.0986L8.28083 21.5986C8.4297 21.7774 8.61612 21.9211 8.82684 22.0196C9.03756 22.1181 9.26739 22.169 9.5 22.1686C9.86995 22.1694 10.2285 22.0405 10.5133 21.8045C10.6737 21.6716 10.8062 21.5083 10.9033 21.3241C11.0005 21.1399 11.0603 20.9383 11.0794 20.7309C11.0986 20.5236 11.0766 20.3144 11.0148 20.1156C10.9529 19.9167 10.8525 19.732 10.7192 19.572L4.97167 12.6686H23.75C24.1699 12.6686 24.5727 12.5018 24.8696 12.2049C25.1665 11.908 25.3333 11.5052 25.3333 11.0853C25.3333 10.6654 25.1665 10.2627 24.8696 9.96573C24.5727 9.6688 24.1699 9.50198 23.75 9.50198Z" fill="white"/>
</svg>
