<svg width="26" height="24" viewBox="0 0 26 24" fill="none" xmlns="http://www.w3.org/2000/svg">
<path d="M25.4608 11.8087L14.3795 1.05898L13.6367 0.338068C13.4675 0.174893 13.2386 0.083313 13.0001 0.083313C12.7615 0.083313 12.5326 0.174893 12.3634 0.338068L0.539273 11.8087C0.365858 11.9763 0.228805 12.176 0.136204 12.3959C0.0436032 12.6158 -0.0026689 12.8515 0.000118871 13.089C0.0115902 14.0688 0.851868 14.851 1.86135 14.851H3.08018V23.9166H22.9199V14.851H24.1646C24.655 14.851 25.1167 14.6645 25.4637 14.3277C25.6346 14.1624 25.7699 13.9658 25.862 13.7494C25.9541 13.5329 26.001 13.3009 26 13.0668C26 12.5936 25.8078 12.1454 25.4608 11.8087ZM14.606 21.9126H11.3941V16.2343H14.606V21.9126ZM20.8551 12.8469V21.9126H16.4415V15.5663C16.4415 14.9512 15.9281 14.4529 15.2943 14.4529H10.7058C10.072 14.4529 9.55864 14.9512 9.55864 15.5663V21.9126H5.14503V12.8469H2.3919L13.0029 2.55648L13.6654 3.19945L23.6111 12.8469H20.8551Z" fill="#979797"/>
</svg>
