<svg width="26" height="26" viewBox="0 0 26 26" fill="none" xmlns="http://www.w3.org/2000/svg">
<circle cx="13" cy="13" r="12" fill="white" stroke="white" stroke-width="2"/>
<path d="M13.5 7C13.7155 7 13.9222 7.0856 14.0745 7.23798C14.2269 7.39035 14.3125 7.59701 14.3125 7.8125V12.6875H19.1875C19.403 12.6875 19.6097 12.7731 19.762 12.9255C19.9144 13.0779 20 13.2845 20 13.5C20 13.7155 19.9144 13.9222 19.762 14.0745C19.6097 14.2269 19.403 14.3125 19.1875 14.3125H14.3125V19.1875C14.3125 19.403 14.2269 19.6097 14.0745 19.762C13.9222 19.9144 13.7155 20 13.5 20C13.2845 20 13.0779 19.9144 12.9255 19.762C12.7731 19.6097 12.6875 19.403 12.6875 19.1875V14.3125H7.8125C7.59701 14.3125 7.39035 14.2269 7.23798 14.0745C7.0856 13.9222 7 13.7155 7 13.5C7 13.2845 7.0856 13.0779 7.23798 12.9255C7.39035 12.7731 7.59701 12.6875 7.8125 12.6875H12.6875V7.8125C12.6875 7.59701 12.7731 7.39035 12.9255 7.23798C13.0779 7.0856 13.2845 7 13.5 7Z" fill="#121212"/>
</svg>
