<svg width="24" height="24" viewBox="0 0 24 24" fill="none" xmlns="http://www.w3.org/2000/svg">
<path d="M5.15385 0H14.8462C15.4174 0 15.9652 0.231785 16.3692 0.644365C16.7731 1.05694 17 1.61652 17 2.2V4.4H14.8462V2.2H5.15385V19.8H14.8462V17.6H17V19.8C17 20.3835 16.7731 20.9431 16.3692 21.3556C15.9652 21.7682 15.4174 22 14.8462 22H5.15385C4.58261 22 4.03477 21.7682 3.63085 21.3556C3.22692 20.9431 3 20.3835 3 19.8V2.2C3 1.61652 3.22692 1.05694 3.63085 0.644365C4.03477 0.231785 4.58261 0 5.15385 0Z" fill="white"/>
<path d="M16.09 15.59L17.5 17L22.5 12L17.5 7L16.09 8.41L18.67 11H9V13H18.67L16.09 15.59Z" fill="white"/>
</svg>
