<svg width="72" height="72" viewBox="0 0 72 72" fill="none" xmlns="http://www.w3.org/2000/svg">
<g filter="url(#filter0_d_156_46)">
<rect x="10.6884" y="10.2656" width="43" height="43.3139" rx="10" fill="#FC9A05"/>
</g>
<path d="M32.326 32.9586C35.891 32.9586 38.7474 30.0749 38.7474 26.4787C38.7474 22.8824 35.891 20 32.326 20C28.7621 20 25.9045 22.8824 25.9045 26.4787C25.9045 30.0749 28.7621 32.9586 32.326 32.9586Z" fill="white"/>
<path d="M22.5682 39.8062C22.5682 43.1367 27.0105 44 32.2719 44C37.5054 44 41.9756 43.1673 41.9756 39.8355C41.9756 36.505 37.5345 35.6417 32.2719 35.6417C27.0384 35.6417 22.5682 36.4744 22.5682 39.8062Z" fill="white"/>
<defs>
<filter id="filter0_d_156_46" x="0.688416" y="0.265625" width="71" height="71.3138" filterUnits="userSpaceOnUse" color-interpolation-filters="sRGB">
<feFlood flood-opacity="0" result="BackgroundImageFix"/>
<feColorMatrix in="SourceAlpha" type="matrix" values="0 0 0 0 0 0 0 0 0 0 0 0 0 0 0 0 0 0 127 0" result="hardAlpha"/>
<feOffset dx="4" dy="4"/>
<feGaussianBlur stdDeviation="7"/>
<feComposite in2="hardAlpha" operator="out"/>
<feColorMatrix type="matrix" values="0 0 0 0 0 0 0 0 0 0 0 0 0 0 0 0 0 0 0.25 0"/>
<feBlend mode="normal" in2="BackgroundImageFix" result="effect1_dropShadow_156_46"/>
<feBlend mode="normal" in="SourceGraphic" in2="effect1_dropShadow_156_46" result="shape"/>
</filter>
</defs>
</svg>
