<svg width="24" height="24" viewBox="0 0 24 24" fill="none" xmlns="http://www.w3.org/2000/svg">
<path d="M0.72 8H2.4C2.532 8 2.64 7.8875 2.64 7.75V2.25H7.92C8.052 2.25 8.16 2.1375 8.16 2V0.25C8.16 0.1125 8.052 0 7.92 0H2.52C1.392 0 0.48 0.95 0.48 2.125V7.75C0.48 7.8875 0.588 8 0.72 8ZM16.08 2.25H21.36V7.75C21.36 7.8875 21.468 8 21.6 8H23.28C23.412 8 23.52 7.8875 23.52 7.75V2.125C23.52 0.95 22.608 0 21.48 0H16.08C15.948 0 15.84 0.1125 15.84 0.25V2C15.84 2.1375 15.948 2.25 16.08 2.25ZM7.92 21.75H2.64V16.25C2.64 16.1125 2.532 16 2.4 16H0.72C0.588 16 0.48 16.1125 0.48 16.25V21.875C0.48 23.05 1.392 24 2.52 24H7.92C8.052 24 8.16 23.8875 8.16 23.75V22C8.16 21.8625 8.052 21.75 7.92 21.75ZM23.28 16H21.6C21.468 16 21.36 16.1125 21.36 16.25V21.75H16.08C15.948 21.75 15.84 21.8625 15.84 22V23.75C15.84 23.8875 15.948 24 16.08 24H21.48C22.608 24 23.52 23.05 23.52 21.875V16.25C23.52 16.1125 23.412 16 23.28 16ZM23.76 10.875H0.24C0.108 10.875 0 10.9875 0 11.125V12.875C0 13.0125 0.108 13.125 0.24 13.125H23.76C23.892 13.125 24 13.0125 24 12.875V11.125C24 10.9875 23.892 10.875 23.76 10.875Z" fill="#979797"/>
</svg>
